<?xml version="1.0" encoding="utf-8"?>
<!-- Generator: Adobe Illustrator 21.0.0, SVG Export Plug-In . SVG Version: 6.00 Build 0)  -->
<svg version="1.1" id="Layer_1" xmlns="http://www.w3.org/2000/svg" xmlns:xlink="http://www.w3.org/1999/xlink" x="0px" y="0px"
	 viewBox="0 0 765.3 283.5" style="enable-background:new 0 0 765.3 283.5;" xml:space="preserve">
<style type="text/css">
	.st0{fill:#E6D9FA;stroke:#E6D9FA;stroke-miterlimit:10;}
	.st1{font-family:'MicrosoftSansSerif';}
	.st2{font-size:56.0375px;}
	.st3{fill:#E6D9FA;}
	.st4{font-family:'GillSansMT';}
	.st5{font-size:49.2181px;}
	.st6{fill:#FF0000;}
</style>
<g>
	<text transform="matrix(0.983 0 0 1 229.7368 119.688)" class="st0 st1 st2">MEKONNEN VISUAL</text>
	<text transform="matrix(0.6928 0 0 1 233.2192 171.8066)" class="st3 st4 st5">Web Developing and Graphic  Design</text>
	<g>
		<path class="st6" d="M93.2,103.8"/>
		<path class="st3" d="M106.8,40L28.3,98c-26.2,19.4-27.1,51.4-1.9,71.6l3.2,2.5v-46.7c0-8.5,8.9-15.4,19.9-15.4v78l17.6,14.1
			l1.1-103.6l18.6-14.3v133.7l19.2,15.4l0.7-0.6V40z"/>
		<path class="st3" d="M159.9,111l21.4,20.7c2.3,2.2-2,6.5-4.3,8.8L153.2,166l-18.6,17.7c-0.2,0.2-1.2,2.1-1.2,1.7l0.4-3.5l-0.4,3.5
			l-3.2-110.4V57.3c0-0.2-5.9-5.9-6-6l-11.6-11.2c-0.2-0.2-0.5,0.1-0.5,0.5l0.6,96.5l0.6,96.5c0,0.4,0.3,0.7,0.5,0.4l47.9-49.6
			l42.8-44.3c2.5-2.6,2.4-8.8-0.1-11.2L184,109.2c0,0-0.1-0.1-0.2-0.1l-23.7,0.9C159.8,110,159.7,110.7,159.9,111z"/>
	</g>
</g>
</svg>
