<?xml version="1.0" encoding="utf-8"?>
<!-- Generator: Adobe Illustrator 21.0.0, SVG Export Plug-In . SVG Version: 6.00 Build 0)  -->
<svg version="1.1" id="Layer_1" xmlns="http://www.w3.org/2000/svg" xmlns:xlink="http://www.w3.org/1999/xlink" x="0px" y="0px"
	 viewBox="0 0 283.5 283.5" style="enable-background:new 0 0 283.5 283.5;" xml:space="preserve">
<style type="text/css">
	.st0{fill:#FF0000;}
	.st1{fill:#E8DD54;}
	.st2{fill:none;stroke:url(#SVGID_1_);stroke-width:0.144;stroke-miterlimit:10;}
	.st3{fill:none;stroke:url(#SVGID_2_);stroke-width:0.144;stroke-miterlimit:10;}
	.st4{fill:none;stroke:url(#SVGID_3_);stroke-width:0.144;stroke-miterlimit:10;}
	.st5{fill:none;stroke:url(#SVGID_4_);stroke-width:0.144;stroke-miterlimit:10;}
	.st6{fill:none;stroke:url(#SVGID_5_);stroke-width:0.144;stroke-miterlimit:10;}
	.st7{fill:none;stroke:url(#SVGID_6_);stroke-width:0.144;stroke-miterlimit:10;}
	.st8{fill:none;stroke:url(#SVGID_7_);stroke-width:0.144;stroke-miterlimit:10;}
	.st9{fill:none;stroke:url(#SVGID_8_);stroke-width:0.144;stroke-miterlimit:10;}
	.st10{fill:none;stroke:url(#SVGID_9_);stroke-width:0.144;stroke-miterlimit:10;}
	.st11{fill:none;stroke:url(#SVGID_10_);stroke-width:0.144;stroke-miterlimit:10;}
	.st12{fill:none;stroke:url(#SVGID_11_);stroke-width:0.144;stroke-miterlimit:10;}
	.st13{fill:none;stroke:url(#SVGID_12_);stroke-width:0.144;stroke-miterlimit:10;}
	.st14{fill:none;stroke:url(#SVGID_13_);stroke-width:0.144;stroke-miterlimit:10;}
	.st15{fill:none;stroke:url(#SVGID_14_);stroke-width:0.144;stroke-miterlimit:10;}
	.st16{fill:none;stroke:url(#SVGID_15_);stroke-width:0.144;stroke-miterlimit:10;}
	.st17{fill:none;stroke:url(#SVGID_16_);stroke-width:0.144;stroke-miterlimit:10;}
	.st18{fill:none;stroke:url(#SVGID_17_);stroke-width:0.144;stroke-miterlimit:10;}
	.st19{fill:none;stroke:url(#SVGID_18_);stroke-width:0.144;stroke-miterlimit:10;}
	.st20{fill:none;stroke:url(#SVGID_19_);stroke-width:0.144;stroke-miterlimit:10;}
	.st21{fill:none;stroke:url(#SVGID_20_);stroke-width:0.144;stroke-miterlimit:10;}
	.st22{fill:none;stroke:url(#SVGID_21_);stroke-width:0.144;stroke-miterlimit:10;}
	.st23{fill:none;stroke:url(#SVGID_22_);stroke-width:0.144;stroke-miterlimit:10;}
	.st24{fill:none;stroke:url(#SVGID_23_);stroke-width:0.144;stroke-miterlimit:10;}
	.st25{fill:none;stroke:url(#SVGID_24_);stroke-width:0.144;stroke-miterlimit:10;}
	.st26{fill:none;stroke:url(#SVGID_25_);stroke-width:0.144;stroke-miterlimit:10;}
	.st27{fill:none;stroke:url(#SVGID_26_);stroke-width:0.144;stroke-miterlimit:10;}
	.st28{fill:none;stroke:url(#SVGID_27_);stroke-width:0.144;stroke-miterlimit:10;}
	.st29{fill:none;stroke:url(#SVGID_28_);stroke-width:0.144;stroke-miterlimit:10;}
	.st30{fill:none;stroke:url(#SVGID_29_);stroke-width:0.144;stroke-miterlimit:10;}
	.st31{fill:none;stroke:url(#SVGID_30_);stroke-width:0.144;stroke-miterlimit:10;}
	.st32{fill:none;stroke:url(#SVGID_31_);stroke-width:0.144;stroke-miterlimit:10;}
	.st33{fill:none;stroke:url(#SVGID_32_);stroke-width:0.144;stroke-miterlimit:10;}
	.st34{font-family:'ARESSENCE';}
	.st35{font-size:40.9119px;}
	.st36{letter-spacing:8;}
</style>
<path class="st0" d="M127.8,72.5"/>
<g>
	<g>
		<g>
			<path class="st1" d="M141.2,75.9l-30.1,22.4c-10,7.5-10.4,19.8-0.7,27.6l1.2,1v-18c0-3.3,3.4-5.9,7.7-5.9V133l6.7,5.4l0.4-40
				l7.2-5.5v51.6l7.4,5.9l0.3-0.2V75.9z"/>
			<path class="st1" d="M142.9,76.1L173,98.5c10,7.5,10.4,19.8,0.7,27.6l-1.2,1v-18c0-3.3-3.4-5.9-7.7-5.9v30.1l-6.7,5.4l-0.4-40
				l-7.2-5.5v51.6l-7.4,5.9l-0.3-0.2V76.1z"/>
		</g>
		<g>
			
				<radialGradient id="SVGID_1_" cx="325.0818" cy="48.0943" r="21.2688" gradientTransform="matrix(3.6433 0 0 3.4059 -1042.7949 -51.7447)" gradientUnits="userSpaceOnUse">
				<stop  offset="0.8069" style="stop-color:#0C391C"/>
				<stop  offset="0.8985" style="stop-color:#9BECC3"/>
				<stop  offset="0.9381" style="stop-color:#72B993"/>
				<stop  offset="1" style="stop-color:#EBFF78"/>
			</radialGradient>
			<polygon class="st2" points="216.8,149.2 141.2,185.7 66,148.5 66.4,74.9 142,38.4 217.2,75.6 			"/>
			
				<radialGradient id="SVGID_2_" cx="325.0827" cy="48.1083" r="21.0614" gradientTransform="matrix(3.6433 0 0 3.4059 -1042.7949 -51.7447)" gradientUnits="userSpaceOnUse">
				<stop  offset="0.8069" style="stop-color:#0C391C"/>
				<stop  offset="0.8985" style="stop-color:#9BECC3"/>
				<stop  offset="0.9381" style="stop-color:#72B993"/>
				<stop  offset="1" style="stop-color:#EBFF78"/>
			</radialGradient>
			<polygon class="st3" points="140.3,184.9 66.5,147.4 67.9,74.6 142.9,39.3 216.6,76.8 215.3,149.6 			"/>
			
				<radialGradient id="SVGID_3_" cx="325.0836" cy="48.1222" r="20.8542" gradientTransform="matrix(3.6433 0 0 3.4059 -1042.7949 -51.7447)" gradientUnits="userSpaceOnUse">
				<stop  offset="0.8069" style="stop-color:#0C391C"/>
				<stop  offset="0.8985" style="stop-color:#9BECC3"/>
				<stop  offset="0.9381" style="stop-color:#72B993"/>
				<stop  offset="1" style="stop-color:#EBFF78"/>
			</radialGradient>
			<polygon class="st4" points="139.3,184 67.1,146.3 69.4,74.4 143.8,40.3 216.1,78 213.8,149.9 			"/>
			
				<radialGradient id="SVGID_4_" cx="325.0845" cy="48.1362" r="20.647" gradientTransform="matrix(3.6433 0 0 3.4059 -1042.7949 -51.7447)" gradientUnits="userSpaceOnUse">
				<stop  offset="0.8069" style="stop-color:#0C391C"/>
				<stop  offset="0.8985" style="stop-color:#9BECC3"/>
				<stop  offset="0.9381" style="stop-color:#72B993"/>
				<stop  offset="1" style="stop-color:#EBFF78"/>
			</radialGradient>
			<polygon class="st5" points="138.4,183.2 67.7,145.1 70.9,74.2 144.8,41.2 215.5,79.3 212.3,150.3 			"/>
			
				<radialGradient id="SVGID_5_" cx="325.0853" cy="48.1502" r="20.44" gradientTransform="matrix(3.6433 0 0 3.4059 -1042.7949 -51.7447)" gradientUnits="userSpaceOnUse">
				<stop  offset="0.8069" style="stop-color:#0C391C"/>
				<stop  offset="0.8985" style="stop-color:#9BECC3"/>
				<stop  offset="0.9381" style="stop-color:#72B993"/>
				<stop  offset="1" style="stop-color:#EBFF78"/>
			</radialGradient>
			<polygon class="st6" points="137.5,182.4 68.2,144 72.3,73.9 145.7,42.1 215,80.5 210.8,150.6 			"/>
			
				<radialGradient id="SVGID_6_" cx="325.0862" cy="48.1642" r="20.2331" gradientTransform="matrix(3.6433 0 0 3.4059 -1042.7949 -51.7447)" gradientUnits="userSpaceOnUse">
				<stop  offset="0.8069" style="stop-color:#0C391C"/>
				<stop  offset="0.8985" style="stop-color:#9BECC3"/>
				<stop  offset="0.9381" style="stop-color:#72B993"/>
				<stop  offset="1" style="stop-color:#EBFF78"/>
			</radialGradient>
			<polygon class="st7" points="136.6,181.5 68.8,142.9 73.8,73.7 146.6,43.1 214.4,81.7 209.4,150.9 			"/>
			
				<radialGradient id="SVGID_7_" cx="325.0871" cy="48.1781" r="20.0263" gradientTransform="matrix(3.6433 0 0 3.4059 -1042.7949 -51.7447)" gradientUnits="userSpaceOnUse">
				<stop  offset="0.8069" style="stop-color:#0C391C"/>
				<stop  offset="0.8985" style="stop-color:#9BECC3"/>
				<stop  offset="0.9381" style="stop-color:#72B993"/>
				<stop  offset="1" style="stop-color:#EBFF78"/>
			</radialGradient>
			<polygon class="st8" points="135.6,180.7 69.4,141.8 75.3,73.4 147.6,44 213.8,82.9 207.9,151.3 			"/>
			
				<radialGradient id="SVGID_8_" cx="325.088" cy="48.1921" r="19.8197" gradientTransform="matrix(3.6433 0 0 3.4059 -1042.7949 -51.7447)" gradientUnits="userSpaceOnUse">
				<stop  offset="0.8069" style="stop-color:#0C391C"/>
				<stop  offset="0.8985" style="stop-color:#9BECC3"/>
				<stop  offset="0.9381" style="stop-color:#72B993"/>
				<stop  offset="1" style="stop-color:#EBFF78"/>
			</radialGradient>
			<polygon class="st9" points="134.7,179.9 69.9,140.6 76.8,73.2 148.5,44.9 213.3,84.2 206.4,151.6 			"/>
			
				<radialGradient id="SVGID_9_" cx="325.0888" cy="48.2061" r="19.6132" gradientTransform="matrix(3.6433 0 0 3.4059 -1042.7949 -51.7447)" gradientUnits="userSpaceOnUse">
				<stop  offset="0.8069" style="stop-color:#0C391C"/>
				<stop  offset="0.8985" style="stop-color:#9BECC3"/>
				<stop  offset="0.9381" style="stop-color:#72B993"/>
				<stop  offset="1" style="stop-color:#EBFF78"/>
			</radialGradient>
			<polygon class="st10" points="133.8,179 70.5,139.5 78.3,72.9 149.4,45.9 212.7,85.4 204.9,152 			"/>
			
				<radialGradient id="SVGID_10_" cx="325.0897" cy="48.2201" r="19.4068" gradientTransform="matrix(3.6433 0 0 3.4059 -1042.7949 -51.7447)" gradientUnits="userSpaceOnUse">
				<stop  offset="0.8069" style="stop-color:#0C391C"/>
				<stop  offset="0.8985" style="stop-color:#9BECC3"/>
				<stop  offset="0.9381" style="stop-color:#72B993"/>
				<stop  offset="1" style="stop-color:#EBFF78"/>
			</radialGradient>
			<polygon class="st11" points="132.9,178.2 71,138.4 79.8,72.7 150.4,46.8 212.2,86.6 203.4,152.3 			"/>
			
				<radialGradient id="SVGID_11_" cx="325.0906" cy="48.234" r="19.2005" gradientTransform="matrix(3.6433 0 0 3.4059 -1042.7949 -51.7447)" gradientUnits="userSpaceOnUse">
				<stop  offset="0.8069" style="stop-color:#0C391C"/>
				<stop  offset="0.8985" style="stop-color:#9BECC3"/>
				<stop  offset="0.9381" style="stop-color:#72B993"/>
				<stop  offset="1" style="stop-color:#EBFF78"/>
			</radialGradient>
			<polygon class="st12" points="131.9,177.3 71.6,137.2 81.3,72.4 151.3,47.7 211.6,87.8 201.9,152.6 			"/>
			
				<radialGradient id="SVGID_12_" cx="325.0914" cy="48.248" r="18.9944" gradientTransform="matrix(3.6433 0 0 3.4059 -1042.7949 -51.7447)" gradientUnits="userSpaceOnUse">
				<stop  offset="0.8069" style="stop-color:#0C391C"/>
				<stop  offset="0.8985" style="stop-color:#9BECC3"/>
				<stop  offset="0.9381" style="stop-color:#72B993"/>
				<stop  offset="1" style="stop-color:#EBFF78"/>
			</radialGradient>
			<polygon class="st13" points="131,176.5 72.2,136.1 82.8,72.2 152.2,48.7 211.1,89.1 200.5,153 			"/>
			
				<radialGradient id="SVGID_13_" cx="325.0923" cy="48.262" r="18.7885" gradientTransform="matrix(3.6433 0 0 3.4059 -1042.7949 -51.7447)" gradientUnits="userSpaceOnUse">
				<stop  offset="0.8069" style="stop-color:#0C391C"/>
				<stop  offset="0.8985" style="stop-color:#9BECC3"/>
				<stop  offset="0.9381" style="stop-color:#72B993"/>
				<stop  offset="1" style="stop-color:#EBFF78"/>
			</radialGradient>
			<polygon class="st14" points="130.1,175.7 72.7,135 84.3,72 153.1,49.6 210.5,90.3 199,153.3 			"/>
			
				<radialGradient id="SVGID_14_" cx="325.0932" cy="48.276" r="18.5827" gradientTransform="matrix(3.6433 0 0 3.4059 -1042.7949 -51.7447)" gradientUnits="userSpaceOnUse">
				<stop  offset="0.8069" style="stop-color:#0C391C"/>
				<stop  offset="0.8985" style="stop-color:#9BECC3"/>
				<stop  offset="0.9381" style="stop-color:#72B993"/>
				<stop  offset="1" style="stop-color:#EBFF78"/>
			</radialGradient>
			<polygon class="st15" points="129.2,174.8 73.3,133.9 85.7,71.7 154.1,50.5 209.9,91.5 197.5,153.7 			"/>
			
				<radialGradient id="SVGID_15_" cx="325.0941" cy="48.2899" r="18.377" gradientTransform="matrix(3.6433 0 0 3.4059 -1042.7949 -51.7447)" gradientUnits="userSpaceOnUse">
				<stop  offset="0.8069" style="stop-color:#0C391C"/>
				<stop  offset="0.8985" style="stop-color:#9BECC3"/>
				<stop  offset="0.9381" style="stop-color:#72B993"/>
				<stop  offset="1" style="stop-color:#EBFF78"/>
			</radialGradient>
			<polygon class="st16" points="128.2,174 73.9,132.7 87.2,71.5 155,51.5 209.4,92.7 196,154 			"/>
			
				<radialGradient id="SVGID_16_" cx="325.0949" cy="48.3039" r="18.1715" gradientTransform="matrix(3.6433 0 0 3.4059 -1042.7949 -51.7447)" gradientUnits="userSpaceOnUse">
				<stop  offset="0.8069" style="stop-color:#0C391C"/>
				<stop  offset="0.8985" style="stop-color:#9BECC3"/>
				<stop  offset="0.9381" style="stop-color:#72B993"/>
				<stop  offset="1" style="stop-color:#EBFF78"/>
			</radialGradient>
			<polygon class="st17" points="127.3,173.2 74.4,131.6 88.7,71.2 155.9,52.4 208.8,93.9 194.5,154.3 			"/>
			
				<radialGradient id="SVGID_17_" cx="325.0958" cy="48.3179" r="17.9662" gradientTransform="matrix(3.6433 0 0 3.4059 -1042.7949 -51.7447)" gradientUnits="userSpaceOnUse">
				<stop  offset="0.8069" style="stop-color:#0C391C"/>
				<stop  offset="0.8985" style="stop-color:#9BECC3"/>
				<stop  offset="0.9381" style="stop-color:#72B993"/>
				<stop  offset="1" style="stop-color:#EBFF78"/>
			</radialGradient>
			<polygon class="st18" points="126.4,172.3 75,130.5 90.2,71 156.9,53.3 208.3,95.2 193.1,154.7 			"/>
			
				<radialGradient id="SVGID_18_" cx="325.0966" cy="48.3319" r="17.761" gradientTransform="matrix(3.6433 0 0 3.4059 -1042.7949 -51.7447)" gradientUnits="userSpaceOnUse">
				<stop  offset="0.8069" style="stop-color:#0C391C"/>
				<stop  offset="0.8985" style="stop-color:#9BECC3"/>
				<stop  offset="0.9381" style="stop-color:#72B993"/>
				<stop  offset="1" style="stop-color:#EBFF78"/>
			</radialGradient>
			<polygon class="st19" points="125.5,171.5 75.5,129.3 91.7,70.7 157.8,54.3 207.7,96.4 191.6,155 			"/>
			
				<radialGradient id="SVGID_19_" cx="325.0975" cy="48.3459" r="17.556" gradientTransform="matrix(3.6433 0 0 3.4059 -1042.7949 -51.7447)" gradientUnits="userSpaceOnUse">
				<stop  offset="0.8069" style="stop-color:#0C391C"/>
				<stop  offset="0.8985" style="stop-color:#9BECC3"/>
				<stop  offset="0.9381" style="stop-color:#72B993"/>
				<stop  offset="1" style="stop-color:#EBFF78"/>
			</radialGradient>
			<polygon class="st20" points="124.6,170.6 76.1,128.2 93.2,70.5 158.7,55.2 207.2,97.6 190.1,155.3 			"/>
			
				<radialGradient id="SVGID_20_" cx="325.0984" cy="48.3598" r="17.3512" gradientTransform="matrix(3.6433 0 0 3.4059 -1042.7949 -51.7447)" gradientUnits="userSpaceOnUse">
				<stop  offset="0.8069" style="stop-color:#0C391C"/>
				<stop  offset="0.8985" style="stop-color:#9BECC3"/>
				<stop  offset="0.9381" style="stop-color:#72B993"/>
				<stop  offset="1" style="stop-color:#EBFF78"/>
			</radialGradient>
			<polygon class="st21" points="123.6,169.8 76.7,127.1 94.7,70.2 159.7,56.1 206.6,98.8 188.6,155.7 			"/>
			
				<radialGradient id="SVGID_21_" cx="325.0993" cy="48.3738" r="17.1465" gradientTransform="matrix(3.6433 0 0 3.4059 -1042.7949 -51.7447)" gradientUnits="userSpaceOnUse">
				<stop  offset="0.8069" style="stop-color:#0C391C"/>
				<stop  offset="0.8985" style="stop-color:#9BECC3"/>
				<stop  offset="0.9381" style="stop-color:#72B993"/>
				<stop  offset="1" style="stop-color:#EBFF78"/>
			</radialGradient>
			<polygon class="st22" points="122.7,169 77.2,126 96.2,70 160.6,57.1 206.1,100.1 187.1,156 			"/>
			
				<radialGradient id="SVGID_22_" cx="325.1002" cy="48.3878" r="16.9421" gradientTransform="matrix(3.6433 0 0 3.4059 -1042.7949 -51.7447)" gradientUnits="userSpaceOnUse">
				<stop  offset="0.8069" style="stop-color:#0C391C"/>
				<stop  offset="0.8985" style="stop-color:#9BECC3"/>
				<stop  offset="0.9381" style="stop-color:#72B993"/>
				<stop  offset="1" style="stop-color:#EBFF78"/>
			</radialGradient>
			<polygon class="st23" points="121.8,168.1 77.8,124.8 97.7,69.8 161.5,58 205.5,101.3 185.6,156.4 			"/>
			
				<radialGradient id="SVGID_23_" cx="325.101" cy="48.4018" r="16.7378" gradientTransform="matrix(3.6433 0 0 3.4059 -1042.7949 -51.7447)" gradientUnits="userSpaceOnUse">
				<stop  offset="0.8069" style="stop-color:#0C391C"/>
				<stop  offset="0.8985" style="stop-color:#9BECC3"/>
				<stop  offset="0.9381" style="stop-color:#72B993"/>
				<stop  offset="1" style="stop-color:#EBFF78"/>
			</radialGradient>
			<polygon class="st24" points="120.9,167.3 78.4,123.7 99.1,69.5 162.4,58.9 204.9,102.5 184.2,156.7 			"/>
			
				<radialGradient id="SVGID_24_" cx="325.1019" cy="48.4157" r="16.5337" gradientTransform="matrix(3.6433 0 0 3.4059 -1042.7949 -51.7447)" gradientUnits="userSpaceOnUse">
				<stop  offset="0.8069" style="stop-color:#0C391C"/>
				<stop  offset="0.8985" style="stop-color:#9BECC3"/>
				<stop  offset="0.9381" style="stop-color:#72B993"/>
				<stop  offset="1" style="stop-color:#EBFF78"/>
			</radialGradient>
			<polygon class="st25" points="119.9,166.5 78.9,122.6 100.6,69.3 163.4,59.8 204.4,103.7 182.7,157 			"/>
			
				<radialGradient id="SVGID_25_" cx="325.1028" cy="48.4297" r="16.3299" gradientTransform="matrix(3.6433 0 0 3.4059 -1042.7949 -51.7447)" gradientUnits="userSpaceOnUse">
				<stop  offset="0.8069" style="stop-color:#0C391C"/>
				<stop  offset="0.8985" style="stop-color:#9BECC3"/>
				<stop  offset="0.9381" style="stop-color:#72B993"/>
				<stop  offset="1" style="stop-color:#EBFF78"/>
			</radialGradient>
			<polygon class="st26" points="119,165.6 79.5,121.4 102.1,69 164.3,60.8 203.8,105 181.2,157.4 			"/>
			
				<radialGradient id="SVGID_26_" cx="325.1036" cy="48.4437" r="16.1262" gradientTransform="matrix(3.6433 0 0 3.4059 -1042.7949 -51.7447)" gradientUnits="userSpaceOnUse">
				<stop  offset="0.8069" style="stop-color:#0C391C"/>
				<stop  offset="0.8985" style="stop-color:#9BECC3"/>
				<stop  offset="0.9381" style="stop-color:#72B993"/>
				<stop  offset="1" style="stop-color:#EBFF78"/>
			</radialGradient>
			<polygon class="st27" points="118.1,164.8 80,120.3 103.6,68.8 165.2,61.7 203.3,106.2 179.7,157.7 			"/>
			
				<radialGradient id="SVGID_27_" cx="325.1045" cy="48.4577" r="15.9228" gradientTransform="matrix(3.6433 0 0 3.4059 -1042.7949 -51.7447)" gradientUnits="userSpaceOnUse">
				<stop  offset="0.8069" style="stop-color:#0C391C"/>
				<stop  offset="0.8985" style="stop-color:#9BECC3"/>
				<stop  offset="0.9381" style="stop-color:#72B993"/>
				<stop  offset="1" style="stop-color:#EBFF78"/>
			</radialGradient>
			<polygon class="st28" points="117.2,163.9 80.6,119.2 105.1,68.5 166.2,62.6 202.7,107.4 178.2,158.1 			"/>
			
				<radialGradient id="SVGID_28_" cx="325.1054" cy="48.4716" r="15.7196" gradientTransform="matrix(3.6433 0 0 3.4059 -1042.7949 -51.7447)" gradientUnits="userSpaceOnUse">
				<stop  offset="0.8069" style="stop-color:#0C391C"/>
				<stop  offset="0.8985" style="stop-color:#9BECC3"/>
				<stop  offset="0.9381" style="stop-color:#72B993"/>
				<stop  offset="1" style="stop-color:#EBFF78"/>
			</radialGradient>
			<polygon class="st29" points="116.2,163.1 81.2,118.1 106.6,68.3 167.1,63.6 202.2,108.6 176.7,158.4 			"/>
			
				<radialGradient id="SVGID_29_" cx="325.1063" cy="48.4856" r="15.5167" gradientTransform="matrix(3.6433 0 0 3.4059 -1042.7949 -51.7447)" gradientUnits="userSpaceOnUse">
				<stop  offset="0.8069" style="stop-color:#0C391C"/>
				<stop  offset="0.8985" style="stop-color:#9BECC3"/>
				<stop  offset="0.9381" style="stop-color:#72B993"/>
				<stop  offset="1" style="stop-color:#EBFF78"/>
			</radialGradient>
			<polygon class="st30" points="115.3,162.3 81.7,116.9 108.1,68 168,64.5 201.6,109.9 175.3,158.7 			"/>
			
				<radialGradient id="SVGID_30_" cx="325.1071" cy="48.4996" r="15.3139" gradientTransform="matrix(3.6433 0 0 3.4059 -1042.7949 -51.7447)" gradientUnits="userSpaceOnUse">
				<stop  offset="0.8069" style="stop-color:#0C391C"/>
				<stop  offset="0.8985" style="stop-color:#9BECC3"/>
				<stop  offset="0.9381" style="stop-color:#72B993"/>
				<stop  offset="1" style="stop-color:#EBFF78"/>
			</radialGradient>
			<polygon class="st31" points="114.4,161.4 82.3,115.8 109.6,67.8 168.9,65.4 201.1,111.1 173.8,159.1 			"/>
			
				<radialGradient id="SVGID_31_" cx="325.108" cy="48.5136" r="15.1115" gradientTransform="matrix(3.6433 0 0 3.4059 -1042.7949 -51.7447)" gradientUnits="userSpaceOnUse">
				<stop  offset="0.8069" style="stop-color:#0C391C"/>
				<stop  offset="0.8985" style="stop-color:#9BECC3"/>
				<stop  offset="0.9381" style="stop-color:#72B993"/>
				<stop  offset="1" style="stop-color:#EBFF78"/>
			</radialGradient>
			<polygon class="st32" points="113.5,160.6 82.9,114.7 111.1,67.6 169.9,66.4 200.5,112.3 172.3,159.4 			"/>
			
				<radialGradient id="SVGID_32_" cx="325.1089" cy="48.5275" r="14.9093" gradientTransform="matrix(3.6433 0 0 3.4059 -1042.7949 -51.7447)" gradientUnits="userSpaceOnUse">
				<stop  offset="0.8069" style="stop-color:#0C391C"/>
				<stop  offset="0.8985" style="stop-color:#9BECC3"/>
				<stop  offset="0.9381" style="stop-color:#72B993"/>
				<stop  offset="1" style="stop-color:#EBFF78"/>
			</radialGradient>
			<polygon class="st33" points="112.5,159.8 83.4,113.5 112.5,67.3 170.8,67.3 199.9,113.5 170.8,159.8 			"/>
		</g>
	</g>
	<text transform="matrix(1.2569 0 0 1 4.0068 231.1709)" class="st1 st34 st35 st36">MEKONNEN</text>
</g>
</svg>
