<?xml version="1.0" encoding="utf-8"?>
<!-- Generator: Adobe Illustrator 21.0.0, SVG Export Plug-In . SVG Version: 6.00 Build 0)  -->
<svg version="1.1" id="Layer_1" xmlns="http://www.w3.org/2000/svg" xmlns:xlink="http://www.w3.org/1999/xlink" x="0px" y="0px"
	 viewBox="0 0 283.5 283.5" style="enable-background:new 0 0 283.5 283.5;" xml:space="preserve">
<style type="text/css">
	.st0{fill:#087A4E;}
	.st1{fill:none;stroke:url(#SVGID_1_);stroke-width:0.5616;stroke-linecap:round;stroke-miterlimit:10;}
	.st2{fill:none;stroke:url(#SVGID_2_);stroke-width:0.5616;stroke-linecap:round;stroke-miterlimit:10;}
	.st3{fill:none;stroke:url(#SVGID_3_);stroke-width:0.5616;stroke-linecap:round;stroke-miterlimit:10;}
	.st4{fill:none;stroke:url(#SVGID_4_);stroke-width:0.5616;stroke-linecap:round;stroke-miterlimit:10;}
	.st5{fill:none;stroke:url(#SVGID_5_);stroke-width:0.5616;stroke-linecap:round;stroke-miterlimit:10;}
	.st6{fill:none;stroke:url(#SVGID_6_);stroke-width:0.5616;stroke-linecap:round;stroke-miterlimit:10;}
	.st7{fill:none;stroke:url(#SVGID_7_);stroke-width:0.5616;stroke-linecap:round;stroke-miterlimit:10;}
	.st8{fill:none;stroke:url(#SVGID_8_);stroke-width:0.5616;stroke-linecap:round;stroke-miterlimit:10;}
	.st9{fill:none;stroke:url(#SVGID_9_);stroke-width:0.5616;stroke-linecap:round;stroke-miterlimit:10;}
	.st10{fill:none;stroke:url(#SVGID_10_);stroke-width:0.5616;stroke-linecap:round;stroke-miterlimit:10;}
	.st11{fill:none;stroke:url(#SVGID_11_);stroke-width:0.5616;stroke-linecap:round;stroke-miterlimit:10;}
	.st12{fill:none;stroke:url(#SVGID_12_);stroke-width:0.5616;stroke-linecap:round;stroke-miterlimit:10;}
	.st13{fill:none;stroke:url(#SVGID_13_);stroke-width:0.5616;stroke-linecap:round;stroke-miterlimit:10;}
	.st14{fill:none;stroke:url(#SVGID_14_);stroke-width:0.5616;stroke-linecap:round;stroke-miterlimit:10;}
	.st15{fill:none;stroke:url(#SVGID_15_);stroke-width:0.5616;stroke-linecap:round;stroke-miterlimit:10;}
	.st16{fill:none;stroke:url(#SVGID_16_);stroke-width:0.5616;stroke-linecap:round;stroke-miterlimit:10;}
	.st17{fill:none;stroke:url(#SVGID_17_);stroke-width:0.5616;stroke-linecap:round;stroke-miterlimit:10;}
	.st18{fill:none;stroke:url(#SVGID_18_);stroke-width:0.5616;stroke-linecap:round;stroke-miterlimit:10;}
	.st19{fill:none;stroke:url(#SVGID_19_);stroke-width:0.5616;stroke-linecap:round;stroke-miterlimit:10;}
	.st20{fill:none;stroke:url(#SVGID_20_);stroke-width:0.5616;stroke-linecap:round;stroke-miterlimit:10;}
	.st21{fill:none;stroke:url(#SVGID_21_);stroke-width:0.5616;stroke-linecap:round;stroke-miterlimit:10;}
	.st22{fill:none;stroke:url(#SVGID_22_);stroke-width:0.5616;stroke-linecap:round;stroke-miterlimit:10;}
	.st23{fill:none;stroke:url(#SVGID_23_);stroke-width:0.5616;stroke-linecap:round;stroke-miterlimit:10;}
	.st24{fill:none;stroke:url(#SVGID_24_);stroke-width:0.5616;stroke-linecap:round;stroke-miterlimit:10;}
	.st25{fill:none;stroke:url(#SVGID_25_);stroke-width:0.5616;stroke-linecap:round;stroke-miterlimit:10;}
	.st26{fill:none;stroke:url(#SVGID_26_);stroke-width:0.5616;stroke-linecap:round;stroke-miterlimit:10;}
	.st27{fill:none;stroke:url(#SVGID_27_);stroke-width:0.5616;stroke-linecap:round;stroke-miterlimit:10;}
	.st28{fill:none;stroke:url(#SVGID_28_);stroke-width:0.5616;stroke-linecap:round;stroke-miterlimit:10;}
	.st29{fill:none;stroke:url(#SVGID_29_);stroke-width:0.5616;stroke-linecap:round;stroke-miterlimit:10;}
	.st30{fill:none;stroke:url(#SVGID_30_);stroke-width:0.5616;stroke-linecap:round;stroke-miterlimit:10;}
	.st31{fill:none;stroke:url(#SVGID_31_);stroke-width:0.5616;stroke-linecap:round;stroke-miterlimit:10;}
	.st32{fill:none;stroke:url(#SVGID_32_);stroke-width:0.5616;stroke-linecap:round;stroke-miterlimit:10;}
	.st33{fill:none;stroke:url(#SVGID_33_);stroke-width:0.5616;stroke-linecap:round;stroke-miterlimit:10;}
	.st34{fill:none;stroke:url(#SVGID_34_);stroke-width:0.5616;stroke-linecap:round;stroke-miterlimit:10;}
	.st35{fill:none;stroke:url(#SVGID_35_);stroke-width:0.5616;stroke-linecap:round;stroke-miterlimit:10;}
	.st36{fill:none;stroke:url(#SVGID_36_);stroke-width:0.5616;stroke-linecap:round;stroke-miterlimit:10;}
	.st37{fill:none;stroke:url(#SVGID_37_);stroke-width:0.5616;stroke-linecap:round;stroke-miterlimit:10;}
	.st38{fill:none;stroke:url(#SVGID_38_);stroke-width:0.5616;stroke-linecap:round;stroke-miterlimit:10;}
	.st39{fill:none;stroke:url(#SVGID_39_);stroke-width:0.5616;stroke-linecap:round;stroke-miterlimit:10;}
	.st40{fill:none;stroke:url(#SVGID_40_);stroke-width:0.5616;stroke-linecap:round;stroke-miterlimit:10;}
	.st41{fill:none;stroke:url(#SVGID_41_);stroke-width:0.5616;stroke-linecap:round;stroke-miterlimit:10;}
	.st42{fill:none;stroke:url(#SVGID_42_);stroke-width:0.5616;stroke-linecap:round;stroke-miterlimit:10;}
	.st43{fill:none;stroke:url(#SVGID_43_);stroke-width:0.5616;stroke-linecap:round;stroke-miterlimit:10;}
	.st44{fill:none;stroke:url(#SVGID_44_);stroke-width:0.5616;stroke-linecap:round;stroke-miterlimit:10;}
	.st45{fill:none;stroke:url(#SVGID_45_);stroke-width:0.5616;stroke-linecap:round;stroke-miterlimit:10;}
	.st46{fill:none;stroke:url(#SVGID_46_);stroke-width:0.5616;stroke-linecap:round;stroke-miterlimit:10;}
	.st47{fill:none;stroke:url(#SVGID_47_);stroke-width:0.5616;stroke-linecap:round;stroke-miterlimit:10;}
</style>
<circle class="st0" cx="138.9" cy="114.4" r="27.3"/>
<g>
	<linearGradient id="SVGID_1_" gradientUnits="userSpaceOnUse" x1="20.6891" y1="152.2686" x2="219.3284" y2="152.2686">
		<stop  offset="0.1757" style="stop-color:#005547"/>
		<stop  offset="0.5099" style="stop-color:#3EB879"/>
		<stop  offset="0.8564" style="stop-color:#006A4B"/>
	</linearGradient>
	<path class="st1" d="M61,258.2c3.9-75.8,11-100.2,18.7-100.5c15.9-0.6,33.7,101.3,49.4,100.5c15.3-0.8,8.9-99,26.7-100.5
		c15-1.2,33.1,101.3,49.4,100.5c5.3-0.3,8.6-11.3,10.7-22.6c0,0,44.4-258.8-194.8-171"/>
	<linearGradient id="SVGID_2_" gradientUnits="userSpaceOnUse" x1="20.6713" y1="152.0266" x2="220.271" y2="152.0266">
		<stop  offset="0.1757" style="stop-color:#005547"/>
		<stop  offset="0.5099" style="stop-color:#3EB879"/>
		<stop  offset="0.8564" style="stop-color:#006A4B"/>
	</linearGradient>
	<path class="st2" d="M61.9,258.2c3.9-75.9,11-100.2,18.7-100.5c15.9-0.6,33.7,101.3,49.4,100.5c15.3-0.8,8.9-99.1,26.7-100.5
		c15-1.2,33.1,101.3,49.4,100.5c4.7-0.2,7.8-9,10-19c0.3-1.2,0.5-2.5,0.7-3.7c0.2-0.8,17.1-100.1-27.3-154.7
		C161.8,47,111.1,30.7,21,64.4"/>
	<linearGradient id="SVGID_3_" gradientUnits="userSpaceOnUse" x1="20.6534" y1="151.7829" x2="221.2139" y2="151.7829">
		<stop  offset="0.1757" style="stop-color:#005547"/>
		<stop  offset="0.5099" style="stop-color:#3EB879"/>
		<stop  offset="0.8564" style="stop-color:#006A4B"/>
	</linearGradient>
	<path class="st3" d="M62.8,258.2c3.9-75.9,11-100.2,18.7-100.5c15.9-0.6,33.7,101.4,49.4,100.5c15.3-0.8,8.9-99.1,26.7-100.5
		c15-1.2,33.1,101.3,49.4,100.5c4.7-0.2,7.8-8.9,10-19.1c0.3-1.2,0.5-2.5,0.7-3.7c0.3-1.6,17.2-100.6-27.6-155.2
		c-28.1-34-79.5-49.9-169-15.8"/>
	<linearGradient id="SVGID_4_" gradientUnits="userSpaceOnUse" x1="20.6356" y1="151.5277" x2="222.2" y2="151.5277">
		<stop  offset="0.1757" style="stop-color:#005547"/>
		<stop  offset="0.5099" style="stop-color:#3EB879"/>
		<stop  offset="0.8564" style="stop-color:#006A4B"/>
	</linearGradient>
	<path class="st4" d="M63.6,258.2c3.9-75.9,11-100.3,18.7-100.6C98.2,157,116,259,131.7,258.2c15.3-0.8,8.9-99.2,26.7-100.6
		c15-1.2,33.1,101.4,49.4,100.6c4.7-0.2,7.8-8.9,10-19.2c0.3-1.2,0.5-2.5,0.7-3.8c0.5-2.5,17.5-101.2-27.9-155.7
		c-28.6-34.4-80.8-49.8-169.6-15.3"/>
	<linearGradient id="SVGID_5_" gradientUnits="userSpaceOnUse" x1="20.6177" y1="151.2775" x2="223.1553" y2="151.2775">
		<stop  offset="0.1757" style="stop-color:#005547"/>
		<stop  offset="0.5099" style="stop-color:#3EB879"/>
		<stop  offset="0.8564" style="stop-color:#006A4B"/>
	</linearGradient>
	<path class="st5" d="M64.5,258.2c3.9-76,11-100.3,18.7-100.6c15.9-0.6,33.7,101.4,49.4,100.6c15.3-0.8,8.9-99.2,26.7-100.6
		c15-1.2,33.1,101.4,49.4,100.6c4.6-0.2,7.8-8.8,10-19.3c0.3-1.2,0.5-2.5,0.7-3.8c0.6-3.3,17.6-101.8-28.2-156.1
		C162,44.4,109,29.3,20.9,64.2"/>
	<linearGradient id="SVGID_6_" gradientUnits="userSpaceOnUse" x1="20.5998" y1="151.0259" x2="224.1098" y2="151.0259">
		<stop  offset="0.1757" style="stop-color:#005547"/>
		<stop  offset="0.5099" style="stop-color:#3EB879"/>
		<stop  offset="0.8564" style="stop-color:#006A4B"/>
	</linearGradient>
	<path class="st6" d="M65.3,258.2c3.9-76,11-100.3,18.7-100.6c15.9-0.6,33.7,101.5,49.4,100.6c15.3-0.8,8.9-99.2,26.7-100.6
		c15-1.2,33.1,101.5,49.4,100.6c4.6-0.2,7.8-8.8,10-19.4c0.3-1.2,0.5-2.5,0.7-3.8c0.8-4.1,17.7-102.3-28.5-156.6
		C162,43.5,108.3,28.8,20.9,64.1"/>
	<linearGradient id="SVGID_7_" gradientUnits="userSpaceOnUse" x1="20.582" y1="150.7728" x2="225.0636" y2="150.7728">
		<stop  offset="0.1757" style="stop-color:#005547"/>
		<stop  offset="0.5099" style="stop-color:#3EB879"/>
		<stop  offset="0.8564" style="stop-color:#006A4B"/>
	</linearGradient>
	<path class="st7" d="M66.2,258.2c3.9-76,11-100.4,18.7-100.7c15.9-0.6,33.7,101.5,49.4,100.7c15.3-0.8,8.9-99.3,26.7-100.7
		c15-1.2,33.1,101.5,49.4,100.7c4.6-0.2,7.8-8.8,10-19.4c0.3-1.2,0.5-2.5,0.8-3.8c0.9-4.9,17.8-102.9-28.8-157.1
		c-30.2-35.2-84.7-49.5-171.4-13.8"/>
	<linearGradient id="SVGID_8_" gradientUnits="userSpaceOnUse" x1="20.5641" y1="150.5183" x2="226.0165" y2="150.5183">
		<stop  offset="0.1757" style="stop-color:#005547"/>
		<stop  offset="0.5099" style="stop-color:#3EB879"/>
		<stop  offset="0.8564" style="stop-color:#006A4B"/>
	</linearGradient>
	<path class="st8" d="M67,258.2c3.9-76,11-100.4,18.7-100.7c15.9-0.6,33.7,101.6,49.4,100.7c15.3-0.8,8.9-99.3,26.7-100.7
		c15-1.2,33.1,101.5,49.4,100.7c4.6-0.2,7.8-8.7,10-19.5c0.3-1.2,0.5-2.5,0.8-3.8c1.1-5.7,17.9-103.4-29-157.6
		c-30.8-35.5-86-49.4-172-13.3"/>
	<linearGradient id="SVGID_9_" gradientUnits="userSpaceOnUse" x1="20.5463" y1="150.2624" x2="226.9688" y2="150.2624">
		<stop  offset="0.1757" style="stop-color:#005547"/>
		<stop  offset="0.5099" style="stop-color:#3EB879"/>
		<stop  offset="0.8564" style="stop-color:#006A4B"/>
	</linearGradient>
	<path class="st9" d="M67.9,258.2c3.9-76.1,11-100.5,18.7-100.8c15.9-0.6,33.7,101.6,49.4,100.8c15.3-0.8,8.9-99.3,26.7-100.8
		c15-1.2,33.1,101.6,49.4,100.8c4.6-0.2,7.8-8.7,10.1-19.6c0.3-1.2,0.5-2.5,0.8-3.8c1.2-6.6,18-103.9-29.3-158
		c-31.3-35.8-87.3-49.3-172.6-12.8"/>
	<linearGradient id="SVGID_10_" gradientUnits="userSpaceOnUse" x1="20.5284" y1="150.0051" x2="227.9204" y2="150.0051">
		<stop  offset="0.1757" style="stop-color:#005547"/>
		<stop  offset="0.5099" style="stop-color:#3EB879"/>
		<stop  offset="0.8564" style="stop-color:#006A4B"/>
	</linearGradient>
	<path class="st10" d="M68.8,258.2c3.9-76.1,11-100.5,18.7-100.8c15.9-0.6,33.7,101.6,49.4,100.8c15.3-0.8,8.9-99.4,26.7-100.8
		c15-1.2,33.1,101.6,49.4,100.8c4.6-0.2,7.8-8.6,10.1-19.7c0.3-1.3,0.5-2.5,0.8-3.8c1.4-7.4,18.2-104.5-29.6-158.5
		C162.2,40.1,105.4,27,20.8,63.9"/>
	<linearGradient id="SVGID_11_" gradientUnits="userSpaceOnUse" x1="20.5105" y1="149.7465" x2="228.8714" y2="149.7465">
		<stop  offset="0.1757" style="stop-color:#005547"/>
		<stop  offset="0.5099" style="stop-color:#3EB879"/>
		<stop  offset="0.8564" style="stop-color:#006A4B"/>
	</linearGradient>
	<path class="st11" d="M69.6,258.2c3.9-76.1,11-100.5,18.7-100.8c15.9-0.6,33.7,101.7,49.4,100.8c15.3-0.8,8.9-99.4,26.7-100.8
		c15-1.2,33.1,101.6,49.4,100.8c4.5-0.2,7.8-8.6,10.1-19.8c0.3-1.3,0.5-2.5,0.8-3.9c1.5-8.2,18.3-105-29.9-159
		c-32.4-36.3-89.9-49-173.9-11.8"/>
	<linearGradient id="SVGID_12_" gradientUnits="userSpaceOnUse" x1="20.4927" y1="149.4867" x2="229.8218" y2="149.4867">
		<stop  offset="0.1757" style="stop-color:#005547"/>
		<stop  offset="0.5099" style="stop-color:#3EB879"/>
		<stop  offset="0.8564" style="stop-color:#006A4B"/>
	</linearGradient>
	<path class="st12" d="M70.5,258.2c3.9-76.2,11-100.6,18.7-100.9c15.9-0.6,33.7,101.7,49.4,100.9c15.3-0.8,8.9-99.5,26.7-100.9
		c15-1.2,33.1,101.7,49.4,100.9c4.5-0.2,7.8-8.5,10.1-19.9c0.3-1.3,0.5-2.6,0.8-3.9c1.7-9,18.4-105.5-30.2-159.5
		C162.3,38.3,104,26,20.8,63.7"/>
	<linearGradient id="SVGID_13_" gradientUnits="userSpaceOnUse" x1="20.4748" y1="149.2256" x2="230.7799" y2="149.2256">
		<stop  offset="0.1757" style="stop-color:#005547"/>
		<stop  offset="0.5099" style="stop-color:#3EB879"/>
		<stop  offset="0.8564" style="stop-color:#006A4B"/>
	</linearGradient>
	<path class="st13" d="M71.3,258.2c3.9-76.2,11-100.6,18.7-100.9c15.9-0.6,33.7,101.7,49.4,100.9c15.3-0.8,8.9-99.5,26.7-100.9
		c15-1.2,33.1,101.7,49.4,100.9c4.5-0.2,7.8-8.5,10.1-20c0.3-1.3,0.5-2.6,0.8-3.9c1.9-9.8,18.5-106.1-30.5-160
		c-33.5-36.9-92.5-48.8-175.1-10.7"/>
	<linearGradient id="SVGID_14_" gradientUnits="userSpaceOnUse" x1="20.457" y1="148.9632" x2="231.7297" y2="148.9632">
		<stop  offset="0.1757" style="stop-color:#005547"/>
		<stop  offset="0.5099" style="stop-color:#3EB879"/>
		<stop  offset="0.8564" style="stop-color:#006A4B"/>
	</linearGradient>
	<path class="st14" d="M72.2,258.2c3.9-76.2,11-100.6,18.7-101c15.9-0.6,33.7,101.8,49.4,101c15.3-0.8,8.9-99.5,26.7-101
		c15-1.2,33.1,101.8,49.4,101c4.5-0.2,7.8-8.5,10.1-20.1c0.3-1.3,0.5-2.6,0.8-3.9c2-10.7,18.6-106.6-30.8-160.4
		c-34.1-37.2-93.8-48.7-175.7-10.2"/>
	<linearGradient id="SVGID_15_" gradientUnits="userSpaceOnUse" x1="20.4391" y1="148.6997" x2="232.6789" y2="148.6997">
		<stop  offset="0.1757" style="stop-color:#005547"/>
		<stop  offset="0.5099" style="stop-color:#3EB879"/>
		<stop  offset="0.8564" style="stop-color:#006A4B"/>
	</linearGradient>
	<path class="st15" d="M73,258.2c3.9-76.2,11-100.7,18.7-101c15.9-0.6,33.7,101.8,49.4,101c15.3-0.8,8.9-99.6,26.7-101
		c15-1.2,33.1,101.8,49.4,101c4.5-0.2,7.7-8.4,10.2-20.2c0.3-1.3,0.5-2.6,0.8-3.9c2.2-11.5,18.7-107.1-31-160.9
		c-34.6-37.5-95.1-48.6-176.3-9.7"/>
	<linearGradient id="SVGID_16_" gradientUnits="userSpaceOnUse" x1="20.4213" y1="148.4351" x2="233.6276" y2="148.4351">
		<stop  offset="0.1757" style="stop-color:#005547"/>
		<stop  offset="0.5099" style="stop-color:#3EB879"/>
		<stop  offset="0.8564" style="stop-color:#006A4B"/>
	</linearGradient>
	<path class="st16" d="M73.9,258.2c3.9-76.3,11-100.7,18.7-101c15.9-0.6,33.7,101.9,49.4,101c15.3-0.8,8.9-99.6,26.7-101
		c15-1.2,33.1,101.8,49.4,101c4.5-0.2,7.7-8.4,10.2-20.3c0.3-1.3,0.5-2.6,0.8-3.9c2.4-12.3,18.8-107.7-31.3-161.4
		c-35.2-37.7-96.4-48.5-176.9-9.2"/>
	<linearGradient id="SVGID_17_" gradientUnits="userSpaceOnUse" x1="20.4034" y1="148.1693" x2="234.5759" y2="148.1693">
		<stop  offset="0.1757" style="stop-color:#005547"/>
		<stop  offset="0.5099" style="stop-color:#3EB879"/>
		<stop  offset="0.8564" style="stop-color:#006A4B"/>
	</linearGradient>
	<path class="st17" d="M74.7,258.2c3.9-76.3,11-100.8,18.7-101.1c15.9-0.6,33.7,101.9,49.4,101.1c15.3-0.8,8.9-99.6,26.7-101.1
		c15-1.2,33.1,101.9,49.4,101.1c4.5-0.2,7.7-8.3,10.2-20.3c0.3-1.3,0.5-2.6,0.8-3.9c2.5-13.1,18.9-108.2-31.6-161.9
		c-35.7-38-97.7-48.4-177.5-8.7"/>
	<linearGradient id="SVGID_18_" gradientUnits="userSpaceOnUse" x1="20.3855" y1="147.9025" x2="235.5237" y2="147.9025">
		<stop  offset="0.1757" style="stop-color:#005547"/>
		<stop  offset="0.5099" style="stop-color:#3EB879"/>
		<stop  offset="0.8564" style="stop-color:#006A4B"/>
	</linearGradient>
	<path class="st18" d="M75.6,258.2c3.9-76.3,11-100.8,18.7-101.1c15.9-0.6,33.7,101.9,49.4,101.1c15.3-0.8,8.9-99.7,26.7-101.1
		c15-1.2,33.1,101.9,49.4,101.1c4.4-0.2,7.7-8.3,10.2-20.4c0.3-1.3,0.5-2.6,0.8-3.9c2.7-13.9,18.9-108.7-31.9-162.3
		c-36.3-38.3-99-48.3-178.1-8.2"/>
	<linearGradient id="SVGID_19_" gradientUnits="userSpaceOnUse" x1="20.3677" y1="147.6346" x2="236.4711" y2="147.6346">
		<stop  offset="0.1757" style="stop-color:#005547"/>
		<stop  offset="0.5099" style="stop-color:#3EB879"/>
		<stop  offset="0.8564" style="stop-color:#006A4B"/>
	</linearGradient>
	<path class="st19" d="M76.5,258.2c3.9-76.4,11-100.8,18.7-101.1c15.9-0.6,33.7,102,49.4,101.1c15.3-0.8,8.9-99.7,26.7-101.1
		c15-1.2,33.1,102,49.4,101.1c4.4-0.2,7.7-8.2,10.2-20.5c0.3-1.3,0.5-2.6,0.8-4c2.8-14.7,19-109.2-32.2-162.8
		C162.5,32.4,99,22.8,20.6,63.2"/>
	<linearGradient id="SVGID_20_" gradientUnits="userSpaceOnUse" x1="20.3498" y1="147.3657" x2="237.4181" y2="147.3657">
		<stop  offset="0.1757" style="stop-color:#005547"/>
		<stop  offset="0.5099" style="stop-color:#3EB879"/>
		<stop  offset="0.8564" style="stop-color:#006A4B"/>
	</linearGradient>
	<path class="st20" d="M77.3,258.2c3.9-76.4,11-100.9,18.7-101.2c15.9-0.6,33.7,102,49.4,101.2c15.3-0.8,8.9-99.8,26.7-101.2
		c15-1.2,33.1,102,49.4,101.2c4.4-0.2,7.7-8.2,10.2-20.6c0.3-1.3,0.5-2.6,0.8-4c3-15.6,19.1-109.8-32.5-163.3
		c-37.4-38.8-101.6-48-179.3-7.2"/>
	<linearGradient id="SVGID_21_" gradientUnits="userSpaceOnUse" x1="20.332" y1="147.0958" x2="238.3648" y2="147.0958">
		<stop  offset="0.1757" style="stop-color:#005547"/>
		<stop  offset="0.5099" style="stop-color:#3EB879"/>
		<stop  offset="0.8564" style="stop-color:#006A4B"/>
	</linearGradient>
	<path class="st21" d="M78.2,258.2c3.9-76.4,11-100.9,18.7-101.2c15.9-0.6,33.7,102.1,49.4,101.2c15.3-0.8,8.9-99.8,26.7-101.2
		c15-1.2,33.1,102,49.4,101.2c4.4-0.2,7.7-8.2,10.3-20.7c0.3-1.3,0.5-2.6,0.8-4c3.1-16.4,19.2-110.3-32.8-163.8
		C162.5,30.7,97.6,21.8,20.6,63"/>
	<linearGradient id="SVGID_22_" gradientUnits="userSpaceOnUse" x1="20.3141" y1="146.8249" x2="239.3111" y2="146.8249">
		<stop  offset="0.1757" style="stop-color:#005547"/>
		<stop  offset="0.5099" style="stop-color:#3EB879"/>
		<stop  offset="0.8564" style="stop-color:#006A4B"/>
	</linearGradient>
	<path class="st22" d="M79,258.2c3.9-76.4,11-100.9,18.7-101.3c15.9-0.6,33.7,102.1,49.4,101.3c15.3-0.8,8.9-99.8,26.7-101.3
		c15-1.2,33.1,102.1,49.4,101.3c4.4-0.2,7.7-8.1,10.3-20.8c0.3-1.3,0.5-2.6,0.8-4c3.3-17.2,19.3-110.8-33-164.2
		C162.6,29.8,96.9,21.3,20.6,63"/>
	<linearGradient id="SVGID_23_" gradientUnits="userSpaceOnUse" x1="20.2962" y1="146.5531" x2="240.2571" y2="146.5531">
		<stop  offset="0.1757" style="stop-color:#005547"/>
		<stop  offset="0.5099" style="stop-color:#3EB879"/>
		<stop  offset="0.8564" style="stop-color:#006A4B"/>
	</linearGradient>
	<path class="st23" d="M79.9,258.2c3.9-76.5,11-101,18.7-101.3c15.9-0.6,33.7,102.1,49.4,101.3c15.3-0.8,8.9-99.9,26.7-101.3
		c15-1.2,33.1,102.1,49.4,101.3c4.4-0.2,7.7-8.1,10.3-20.9c0.3-1.3,0.5-2.6,0.8-4c3.4-18,19.4-111.3-33.3-164.7
		C162.6,29,96.2,20.9,20.6,62.9"/>
	<linearGradient id="SVGID_24_" gradientUnits="userSpaceOnUse" x1="20.2784" y1="146.2804" x2="241.2028" y2="146.2804">
		<stop  offset="0.1757" style="stop-color:#005547"/>
		<stop  offset="0.5099" style="stop-color:#3EB879"/>
		<stop  offset="0.8564" style="stop-color:#006A4B"/>
	</linearGradient>
	<path class="st24" d="M80.7,258.2c3.9-76.5,11-101,18.7-101.3c15.9-0.6,33.7,102.2,49.4,101.3c15.3-0.8,8.9-99.9,26.7-101.3
		c15-1.2,33.1,102.1,49.4,101.3c4.4-0.2,7.7-8,10.3-21c0.3-1.3,0.5-2.6,0.8-4c3.6-18.8,19.5-111.8-33.6-165.2
		C162.6,28.1,95.5,20.4,20.6,62.8"/>
	<linearGradient id="SVGID_25_" gradientUnits="userSpaceOnUse" x1="20.2605" y1="146.0069" x2="242.1482" y2="146.0069">
		<stop  offset="0.1757" style="stop-color:#005547"/>
		<stop  offset="0.5099" style="stop-color:#3EB879"/>
		<stop  offset="0.8564" style="stop-color:#006A4B"/>
	</linearGradient>
	<path class="st25" d="M81.6,258.2c3.9-76.5,11-101.1,18.7-101.4c15.9-0.6,33.7,102.2,49.4,101.4c15.3-0.8,8.9-99.9,26.7-101.4
		c15-1.2,33.1,102.2,49.4,101.4c4.3-0.2,7.7-8,10.3-21.1c0.3-1.3,0.5-2.6,0.8-4c3.8-19.7,19.5-112.3-33.9-165.7
		C162.6,27.3,94.8,19.9,20.5,62.8"/>
	<linearGradient id="SVGID_26_" gradientUnits="userSpaceOnUse" x1="20.2427" y1="145.7325" x2="243.0933" y2="145.7325">
		<stop  offset="0.1757" style="stop-color:#005547"/>
		<stop  offset="0.5099" style="stop-color:#3EB879"/>
		<stop  offset="0.8564" style="stop-color:#006A4B"/>
	</linearGradient>
	<path class="st26" d="M82.4,258.2c3.9-76.6,11-101.1,18.7-101.4c15.9-0.6,33.7,102.2,49.4,101.4c15.3-0.8,8.9-100,26.7-101.4
		c15-1.2,33.1,102.2,49.4,101.4c4.3-0.2,7.7-8,10.3-21.1c0.3-1.3,0.5-2.7,0.8-4.1c3.9-20.5,19.6-112.8-34.2-166.1
		C162.7,26.4,94.1,19.5,20.5,62.7"/>
	<linearGradient id="SVGID_27_" gradientUnits="userSpaceOnUse" x1="20.2248" y1="145.4572" x2="244.0382" y2="145.4572">
		<stop  offset="0.1757" style="stop-color:#005547"/>
		<stop  offset="0.5099" style="stop-color:#3EB879"/>
		<stop  offset="0.8564" style="stop-color:#006A4B"/>
	</linearGradient>
	<path class="st27" d="M83.3,258.2c3.9-76.6,11-101.1,18.7-101.4c15.9-0.6,33.7,102.3,49.4,101.4c15.3-0.8,8.9-100,26.7-101.4
		c15-1.2,33.1,102.3,49.4,101.4c4.3-0.2,7.7-7.9,10.4-21.2c0.3-1.3,0.5-2.7,0.8-4.1c4.1-21.3,19.7-113.4-34.5-166.6
		C162.7,25.6,93.4,19,20.5,62.6"/>
	<linearGradient id="SVGID_28_" gradientUnits="userSpaceOnUse" x1="20.2069" y1="145.1812" x2="244.9829" y2="145.1812">
		<stop  offset="0.1757" style="stop-color:#005547"/>
		<stop  offset="0.5099" style="stop-color:#3EB879"/>
		<stop  offset="0.8564" style="stop-color:#006A4B"/>
	</linearGradient>
	<path class="st28" d="M84.2,258.2c3.9-76.6,11-101.2,18.7-101.5c15.9-0.6,33.7,102.3,49.4,101.5c15.3-0.8,8.9-100.1,26.7-101.5
		c15-1.2,33.1,102.3,49.4,101.5c4.3-0.2,7.7-7.9,10.4-21.3c0.3-1.3,0.5-2.7,0.8-4.1c4.2-22.1,19.8-113.9-34.8-167.1
		c-41.9-40.9-112-47.2-184.2-3.2"/>
	<linearGradient id="SVGID_29_" gradientUnits="userSpaceOnUse" x1="20.1891" y1="144.9044" x2="245.9274" y2="144.9044">
		<stop  offset="0.1757" style="stop-color:#005547"/>
		<stop  offset="0.5099" style="stop-color:#3EB879"/>
		<stop  offset="0.8564" style="stop-color:#006A4B"/>
	</linearGradient>
	<path class="st29" d="M85,258.2c3.9-76.6,11-101.2,18.7-101.5c15.9-0.6,33.7,102.4,49.4,101.5c15.3-0.8,8.9-100.1,26.7-101.5
		c15-1.2,33.1,102.3,49.4,101.5c4.3-0.2,7.7-7.8,10.4-21.4c0.3-1.3,0.5-2.7,0.8-4.1c4.4-22.9,19.8-114.4-35-167.6
		c-42.5-41.2-113.3-47-184.8-2.7"/>
	<linearGradient id="SVGID_30_" gradientUnits="userSpaceOnUse" x1="20.1712" y1="144.6268" x2="246.8716" y2="144.6268">
		<stop  offset="0.1757" style="stop-color:#005547"/>
		<stop  offset="0.5099" style="stop-color:#3EB879"/>
		<stop  offset="0.8564" style="stop-color:#006A4B"/>
	</linearGradient>
	<path class="st30" d="M85.9,258.2c3.9-76.7,11-101.3,18.7-101.6c15.9-0.6,33.7,102.4,49.4,101.6c15.3-0.8,8.9-100.1,26.7-101.6
		c15-1.2,33.1,102.4,49.4,101.6c4.3-0.2,7.7-7.8,10.4-21.5c0.3-1.3,0.5-2.7,0.8-4.1c4.5-23.8,19.9-114.9-35.3-168
		C162.7,23.1,91.2,17.6,20.5,62.4"/>
	<linearGradient id="SVGID_31_" gradientUnits="userSpaceOnUse" x1="20.1534" y1="144.3485" x2="247.8157" y2="144.3485">
		<stop  offset="0.1757" style="stop-color:#005547"/>
		<stop  offset="0.5099" style="stop-color:#3EB879"/>
		<stop  offset="0.8564" style="stop-color:#006A4B"/>
	</linearGradient>
	<path class="st31" d="M86.7,258.2c3.9-76.7,11-101.3,18.7-101.6c15.9-0.6,33.7,102.4,49.4,101.6c15.3-0.8,8.9-100.2,26.7-101.6
		c15-1.2,33.1,102.4,49.4,101.6c4.2-0.2,7.7-7.7,10.4-21.6c0.3-1.3,0.5-2.7,0.8-4.1c4.7-24.6,20-115.4-35.6-168.5
		c-43.7-41.7-115.9-46.8-186-1.6"/>
	<linearGradient id="SVGID_32_" gradientUnits="userSpaceOnUse" x1="20.1355" y1="144.0695" x2="248.7596" y2="144.0695">
		<stop  offset="0.1757" style="stop-color:#005547"/>
		<stop  offset="0.5099" style="stop-color:#3EB879"/>
		<stop  offset="0.8564" style="stop-color:#006A4B"/>
	</linearGradient>
	<path class="st32" d="M87.6,258.2c3.9-76.7,11-101.3,18.7-101.6c15.9-0.6,33.7,102.5,49.4,101.6c15.3-0.8,8.9-100.2,26.7-101.6
		c15-1.2,33.1,102.4,49.4,101.6c4.2-0.2,7.7-7.7,10.4-21.7c0.3-1.3,0.5-2.7,0.8-4.1c4.9-25.4,20.1-115.9-35.9-169
		c-44.2-42-117.2-46.7-186.6-1.1"/>
	<linearGradient id="SVGID_33_" gradientUnits="userSpaceOnUse" x1="20.1177" y1="143.7899" x2="249.7033" y2="143.7899">
		<stop  offset="0.1757" style="stop-color:#005547"/>
		<stop  offset="0.5099" style="stop-color:#3EB879"/>
		<stop  offset="0.8564" style="stop-color:#006A4B"/>
	</linearGradient>
	<path class="st33" d="M88.4,258.2c3.9-76.8,11-101.4,18.7-101.7c15.9-0.6,33.7,102.5,49.4,101.7c15.3-0.8,8.9-100.2,26.7-101.7
		c15-1.2,33.1,102.5,49.4,101.7c4.2-0.2,7.7-7.7,10.4-21.8c0.3-1.3,0.5-2.7,0.8-4.2c5-26.2,20.1-116.4-36.2-169.5
		C162.8,20.6,89.1,16.2,20.4,62.2"/>
	<linearGradient id="SVGID_34_" gradientUnits="userSpaceOnUse" x1="20.0998" y1="143.5095" x2="250.6468" y2="143.5095">
		<stop  offset="0.1757" style="stop-color:#005547"/>
		<stop  offset="0.5099" style="stop-color:#3EB879"/>
		<stop  offset="0.8564" style="stop-color:#006A4B"/>
	</linearGradient>
	<path class="st34" d="M89.3,258.2c3.9-76.8,11-101.4,18.7-101.7c15.9-0.6,33.7,102.5,49.4,101.7c15.3-0.8,8.9-100.3,26.7-101.7
		c15-1.2,33.1,102.5,49.4,101.7c4.2-0.2,7.6-7.6,10.5-21.9c0.3-1.3,0.5-2.7,0.8-4.2c5.2-27,20.2-116.9-36.5-169.9
		C162.8,19.7,88.4,15.7,20.4,62.1"/>
	<linearGradient id="SVGID_35_" gradientUnits="userSpaceOnUse" x1="20.0819" y1="143.2285" x2="251.5902" y2="143.2285">
		<stop  offset="0.1757" style="stop-color:#005547"/>
		<stop  offset="0.5099" style="stop-color:#3EB879"/>
		<stop  offset="0.8564" style="stop-color:#006A4B"/>
	</linearGradient>
	<path class="st35" d="M90.1,258.2c3.9-76.8,11-101.4,18.7-101.7c15.9-0.6,33.7,102.6,49.4,101.7c15.3-0.8,8.9-100.3,26.7-101.7
		c15-1.2,33.1,102.6,49.4,101.7c4.2-0.2,7.6-7.6,10.5-21.9c0.3-1.3,0.5-2.7,0.8-4.2c5.3-27.9,20.3-117.4-36.8-170.4
		C162.8,18.9,87.7,15.3,20.4,62"/>
	<linearGradient id="SVGID_36_" gradientUnits="userSpaceOnUse" x1="20.0641" y1="142.9469" x2="252.5335" y2="142.9469">
		<stop  offset="0.1757" style="stop-color:#005547"/>
		<stop  offset="0.5099" style="stop-color:#3EB879"/>
		<stop  offset="0.8564" style="stop-color:#006A4B"/>
	</linearGradient>
	<path class="st36" d="M91,258.2c3.9-76.8,11-101.5,18.7-101.8c15.9-0.6,33.7,102.6,49.4,101.8c15.3-0.8,8.9-100.4,26.7-101.8
		c15-1.2,33.1,102.6,49.4,101.8c4.2-0.2,7.6-7.5,10.5-22c0.3-1.3,0.5-2.7,0.8-4.2c5.5-28.7,20.3-117.9-37.1-170.9
		C162.8,18.1,87,14.8,20.3,62"/>
	<linearGradient id="SVGID_37_" gradientUnits="userSpaceOnUse" x1="20.0462" y1="142.6647" x2="253.4767" y2="142.6647">
		<stop  offset="0.1757" style="stop-color:#005547"/>
		<stop  offset="0.5099" style="stop-color:#3EB879"/>
		<stop  offset="0.8564" style="stop-color:#006A4B"/>
	</linearGradient>
	<path class="st37" d="M91.9,258.2c3.9-76.9,11-101.5,18.7-101.8c15.9-0.6,33.7,102.7,49.4,101.8c15.3-0.8,8.9-100.4,26.7-101.8
		c15-1.2,33.1,102.6,49.4,101.8c4.2-0.2,7.6-7.5,10.5-22.1c0.3-1.3,0.5-2.7,0.8-4.2c5.6-29.5,20.4-118.4-37.3-171.4
		C162.8,17.2,86.3,14.3,20.3,61.9"/>
	<linearGradient id="SVGID_38_" gradientUnits="userSpaceOnUse" x1="20.0284" y1="142.382" x2="254.4198" y2="142.382">
		<stop  offset="0.1757" style="stop-color:#005547"/>
		<stop  offset="0.5099" style="stop-color:#3EB879"/>
		<stop  offset="0.8564" style="stop-color:#006A4B"/>
	</linearGradient>
	<path class="st38" d="M92.7,258.2c3.9-76.9,11-101.6,18.7-101.9c15.9-0.6,33.7,102.7,49.4,101.9c15.3-0.8,8.9-100.4,26.7-101.9
		c15-1.2,33.1,102.7,49.4,101.9c4.1-0.2,7.6-7.4,10.5-22.2c0.3-1.3,0.5-2.7,0.8-4.2c5.8-30.3,20.5-118.9-37.6-171.8
		c-47.7-43.5-125-46-190.2,1.9"/>
	<linearGradient id="SVGID_39_" gradientUnits="userSpaceOnUse" x1="20.0105" y1="142.0986" x2="255.3627" y2="142.0986">
		<stop  offset="0.1757" style="stop-color:#005547"/>
		<stop  offset="0.5099" style="stop-color:#3EB879"/>
		<stop  offset="0.8564" style="stop-color:#006A4B"/>
	</linearGradient>
	<path class="st39" d="M93.6,258.2c3.9-76.9,11-101.6,18.7-101.9c15.9-0.6,33.7,102.7,49.4,101.9c15.3-0.8,8.9-100.5,26.7-101.9
		c15-1.2,33.1,102.7,49.4,101.9c4.1-0.2,7.6-7.4,10.5-22.3c0.3-1.3,0.5-2.8,0.8-4.2c6-31.1,20.5-119.4-37.9-172.3
		C162.8,15.6,84.8,13.4,20.3,61.7"/>
	<linearGradient id="SVGID_40_" gradientUnits="userSpaceOnUse" x1="19.9926" y1="141.8148" x2="256.3055" y2="141.8148">
		<stop  offset="0.1757" style="stop-color:#005547"/>
		<stop  offset="0.5099" style="stop-color:#3EB879"/>
		<stop  offset="0.8564" style="stop-color:#006A4B"/>
	</linearGradient>
	<path class="st40" d="M94.4,258.2c3.9-77,11-101.6,18.7-101.9c15.9-0.6,33.7,102.8,49.4,101.9c15.3-0.8,8.9-100.5,26.7-101.9
		c15-1.2,33.1,102.8,49.4,101.9c4.1-0.2,7.6-7.4,10.6-22.4c0.3-1.3,0.5-2.8,0.8-4.2c6.1-32,20.6-119.9-38.2-172.8
		c-48.9-44-127.6-45.8-191.4,2.9"/>
	<linearGradient id="SVGID_41_" gradientUnits="userSpaceOnUse" x1="19.9748" y1="141.5303" x2="257.2483" y2="141.5303">
		<stop  offset="0.1757" style="stop-color:#005547"/>
		<stop  offset="0.5099" style="stop-color:#3EB879"/>
		<stop  offset="0.8564" style="stop-color:#006A4B"/>
	</linearGradient>
	<path class="st41" d="M95.3,258.2c3.9-77,11-101.7,18.7-102c15.9-0.6,33.7,102.8,49.4,102c15.3-0.8,8.9-100.5,26.7-102
		c15-1.2,33.1,102.8,49.4,102c4.1-0.2,7.6-7.3,10.6-22.5c0.3-1.3,0.5-2.8,0.8-4.3c6.3-32.8,20.7-120.3-38.5-173.3
		c-49.4-44.2-128.9-45.7-192,3.4"/>
	<linearGradient id="SVGID_42_" gradientUnits="userSpaceOnUse" x1="19.9569" y1="141.2454" x2="258.191" y2="141.2454">
		<stop  offset="0.1757" style="stop-color:#005547"/>
		<stop  offset="0.5099" style="stop-color:#3EB879"/>
		<stop  offset="0.8564" style="stop-color:#006A4B"/>
	</linearGradient>
	<path class="st42" d="M96.1,258.2c3.9-77,11-101.7,18.7-102c15.9-0.6,33.7,102.9,49.4,102c15.3-0.8,8.9-100.6,26.7-102
		c15-1.2,33.1,102.8,49.4,102c4.1-0.2,7.6-7.3,10.6-22.6c0.3-1.4,0.5-2.8,0.8-4.3c6.4-33.6,20.7-120.8-38.8-173.7
		C162.9,13.1,82.7,12,20.2,61.5"/>
	<linearGradient id="SVGID_43_" gradientUnits="userSpaceOnUse" x1="19.9391" y1="140.9783" x2="259.1056" y2="140.9783">
		<stop  offset="0.1757" style="stop-color:#005547"/>
		<stop  offset="0.5099" style="stop-color:#3EB879"/>
		<stop  offset="0.8564" style="stop-color:#006A4B"/>
	</linearGradient>
	<path class="st43" d="M97,258.2c3.9-77,11-101.7,18.7-102.1c15.9-0.6,33.7,102.9,49.4,102.1c15.3-0.8,8.9-100.6,26.7-102.1
		c15-1.2,33.1,102.9,49.4,102.1c4.1-0.2,7.6-7.2,10.6-22.7c0.3-1.4,0.5-2.8,0.8-4.3c6.6-34.4,20.7-121.2-39.1-174.2
		C162.8,12.4,82,11.5,20.2,61.4"/>
	<linearGradient id="SVGID_44_" gradientUnits="userSpaceOnUse" x1="19.9212" y1="140.6882" x2="260.055" y2="140.6882">
		<stop  offset="0.1757" style="stop-color:#005547"/>
		<stop  offset="0.5099" style="stop-color:#3EB879"/>
		<stop  offset="0.8564" style="stop-color:#006A4B"/>
	</linearGradient>
	<path class="st44" d="M97.9,258.2c3.9-77.1,11-101.8,18.7-102.1c15.9-0.6,33.7,102.9,49.4,102.1c15.3-0.8,8.9-100.7,26.7-102.1
		c15-1.2,33.1,102.9,49.4,102.1c4.1-0.2,7.6-7.2,10.6-22.8c0.3-1.4,0.5-2.8,0.8-4.3c6.7-35.2,20.8-121.7-39.3-174.7
		C162.8,11.5,81.3,11.1,20.2,61.4"/>
	<linearGradient id="SVGID_45_" gradientUnits="userSpaceOnUse" x1="19.9033" y1="140.3974" x2="261.0044" y2="140.3974">
		<stop  offset="0.1757" style="stop-color:#005547"/>
		<stop  offset="0.5099" style="stop-color:#3EB879"/>
		<stop  offset="0.8564" style="stop-color:#006A4B"/>
	</linearGradient>
	<path class="st45" d="M98.7,258.2c3.9-77.1,11-101.8,18.7-102.1c15.9-0.6,33.7,103,49.4,102.1c15.3-0.8,8.9-100.7,26.7-102.1
		c15-1.2,33.1,102.9,49.4,102.1c4-0.2,7.6-7.2,10.6-22.8c0.3-1.4,0.5-2.8,0.8-4.3c6.9-36,20.9-122.2-39.6-175.2
		C162.8,10.7,80.6,10.6,20.2,61.3"/>
	<linearGradient id="SVGID_46_" gradientUnits="userSpaceOnUse" x1="19.8855" y1="140.1059" x2="261.9539" y2="140.1059">
		<stop  offset="0.1757" style="stop-color:#005547"/>
		<stop  offset="0.5099" style="stop-color:#3EB879"/>
		<stop  offset="0.8564" style="stop-color:#006A4B"/>
	</linearGradient>
	<path class="st46" d="M99.6,258.2c3.9-77.1,11-101.9,18.7-102.2c15.9-0.6,33.7,103,49.4,102.2c15.3-0.8,8.9-100.7,26.7-102.2
		c15-1.2,33.1,103,49.4,102.2c4-0.2,7.6-7.1,10.7-22.9c0.3-1.4,0.5-2.8,0.8-4.3c7.1-36.9,21-122.8-39.9-175.6
		C162.8,9.9,79.9,10.1,20.2,61.2"/>
	<linearGradient id="SVGID_47_" gradientUnits="userSpaceOnUse" x1="19.8676" y1="139.8137" x2="262.9034" y2="139.8137">
		<stop  offset="0.1757" style="stop-color:#005547"/>
		<stop  offset="0.5099" style="stop-color:#3EB879"/>
		<stop  offset="0.8564" style="stop-color:#006A4B"/>
	</linearGradient>
	<path class="st47" d="M100.4,258.2c3.9-77.2,11-101.9,18.7-102.2c15.9-0.6,33.7,103,49.4,102.2c15.3-0.8,8.9-100.8,26.7-102.2
		c15-1.2,33.1,103,49.4,102.2c4-0.2,7.6-7.1,10.7-23c6.8-35,24.4-125.5-39.4-180.5C162.9,9,79.2,9.7,20.1,61.1"/>
</g>
</svg>
